<svg xmlns="http://www.w3.org/2000/svg" viewBox="0 0 256 256">
  <!-- Waffle-knit beanie based on the photo, without text label -->

  <!-- Main beanie body (folded brim) -->
  <path d="M44 138h168c8 0 14 6 14 14v24c0 22-18 40-40 40H70c-22 0-40-18-40-40v-24c0-8 6-14 14-14z"
        fill="#E23A2E"/>

  <!-- Brim fold line -->
  <path d="M54 138c0 16 18 28 40 28h68c22 0 40-12 40-28"
        stroke="#C42E24" stroke-width="4" stroke-linecap="round" fill="none"/>

  <!-- Upper beanie (slouchy top) -->
  <path d="M64 130c0-50 32-86 64-86s64 36 64 86"
        fill="#E23A2E"/>

  <!-- Top fold/slouch detail -->
  <path d="M90 80c10-12 24-20 38-20s28 8 38 20"
        stroke="#C42E24" stroke-width="3" stroke-linecap="round" fill="none"/>

  <!-- Waffle texture lines (subtle) -->
  <path d="M80 100c0 0 20-8 48-8s48 8 48 8" stroke="#C42E24" stroke-width="2" opacity="0.5" fill="none"/>
  <path d="M72 118c0 0 28-6 56-6s56 6 56 6" stroke="#C42E24" stroke-width="2" opacity="0.5" fill="none"/>

  <!-- Brim texture -->
  <path d="M60 155c0 0 40-4 68-4s68 4 68 4" stroke="#C42E24" stroke-width="2" opacity="0.4" fill="none"/>
  <path d="M55 170c0 0 45-3 73-3s73 3 73 3" stroke="#C42E24" stroke-width="2" opacity="0.4" fill="none"/>

  <!-- Black label (without text) -->
  <rect x="150" y="152" rx="3" ry="3" width="48" height="20" fill="#111111"/>
</svg>
